<svg width="302" height="230" viewBox="0 0 302 230" fill="none" xmlns="http://www.w3.org/2000/svg">
<path d="M256.045 19.4252C290.152 69.5483 306.996 126.086 300.7 191.173C300.673 191.449 300.53 191.702 300.303 191.868C274.475 210.824 249.45 222.329 224.777 229.958C224.585 230.016 224.379 230.013 224.189 229.949C223.999 229.885 223.834 229.762 223.716 229.6C218.016 221.672 212.837 213.314 208.299 204.538C208.039 204.021 208.277 203.399 208.813 203.195C217.038 200.097 224.86 196.384 232.384 191.988C232.976 191.641 233.014 190.792 232.467 190.385C230.87 189.2 229.288 187.955 227.774 186.71C227.491 186.48 227.11 186.434 226.789 186.589C177.945 209.134 124.438 209.134 75.0155 186.589C74.6947 186.446 74.3134 186.495 74.0378 186.721C72.5278 187.966 70.9423 189.2 69.3606 190.385C68.8132 190.792 68.8585 191.641 69.455 191.988C76.9786 196.301 84.8003 200.097 93.0147 203.21C93.547 203.414 93.7999 204.021 93.5357 204.538C89.0963 213.326 83.917 221.683 78.111 229.611C77.8581 229.932 77.4429 230.079 77.0503 229.958C52.4939 222.329 27.4695 210.824 1.641 191.868C1.42583 191.702 1.27105 191.438 1.2484 191.162C-4.01394 134.862 6.71081 77.8569 45.8613 19.4139C45.9557 19.2592 46.0991 19.1384 46.2652 19.0668C65.529 10.2299 86.1669 3.72873 107.737 0.015906C108.13 -0.0444651 108.522 0.136648 108.726 0.483782C111.391 5.20027 114.438 11.2487 116.499 16.1916C139.236 12.7202 162.327 12.7202 185.54 16.1916C187.601 11.3543 190.542 5.20027 193.196 0.483782C193.29 0.311573 193.437 0.173608 193.614 0.0895842C193.792 0.00556062 193.991 -0.0202259 194.185 0.015906C215.766 3.74005 236.404 10.2413 255.653 19.0668C255.823 19.1384 255.962 19.2592 256.045 19.4252ZM128.058 126.471C128.296 109.827 116.155 96.055 100.916 96.055C85.8007 96.055 73.7774 109.706 73.7774 126.471C73.7774 143.231 86.0385 156.883 100.916 156.883C116.035 156.883 128.058 143.231 128.058 126.471ZM228.405 126.471C228.643 109.827 216.502 96.055 201.266 96.055C186.148 96.055 174.124 109.706 174.124 126.471C174.124 143.231 186.385 156.883 201.266 156.883C216.502 156.883 228.405 143.231 228.405 126.471Z" fill="white"/>
</svg>
