<svg width="183" height="212" viewBox="0 0 183 212" fill="none" xmlns="http://www.w3.org/2000/svg">
<path fill-rule="evenodd" clip-rule="evenodd" d="M91.5 7.31969L91.1722 0H68.8298V7.59079H53.5343V15.1816H45.8866V30.3632H38.2388V45.5448H30.591V53.1356H22.9433V60.7263H7.64776V67.7749H15.2955V83.4987H7.64776V91.0895H0V143.683H7.10149V136.092H15.2955V158.864H22.9433V166.455H30.591V181.637H38.2388V196.818H45.3403V181.637H53.5343V204.409H61.1821V212H75.9313V204.951H68.2836V182.179H60.6358V159.407H52.9881V151.816H45.3403V136.634H38.2388V144.225H30.0448V121.453H22.397V82.9565H30.591V98.1381H38.2388V113.32H45.3403V105.729H53.5343V120.91H61.1821V143.683H68.8298V151.274H76.4776V158.864H84.1254V166.455H91.7731V174.588H84.1254V196.818H91.2269V189.228H99.4209V212H129.466V204.409H137.113V189.824L129.739 189.499L129.411 182.233L122.091 181.908L121.763 174.642L106.796 174.317L106.632 163.094L106.522 151.87L99.1478 151.545L98.82 144.279L91.5 143.954L91.1722 136.688L83.8522 136.363L83.5245 129.098L76.2045 128.772L75.8767 121.507L68.5567 121.182L68.229 113.916L60.909 113.591L60.5812 98.7345L53.2612 98.4092L53.0973 83.3361L52.9881 68.3171H45.8866V75.9621L37.9657 75.6368L37.6379 60.1841H45.3403V52.5933H52.9881V45.0026H60.6358V37.4118H83.5791V22.8266L76.2045 22.5013L75.8767 14.6394H91.7731V22.2302H99.4209V37.4118H106.522V15.2358L99.1478 14.9105L98.82 7.64502L91.5 7.31969ZM129.739 7.31969L129.411 0H107.069V7.04859H114.716V14.6394H122.364V37.4118H137.113V7.64502L129.739 7.31969ZM152.682 30.0921L152.354 15.1816H145.307V45.0026H152.955V52.5933H160.057V30.4174L152.682 30.0921ZM99.1478 52.8645L98.82 45.5448H84.1254V53.1356H76.4776V60.7263H68.8298V90.5473H76.4776V98.1381H84.1254V105.729H91.7731V113.32H98.8746V105.729H107.069V128.501H114.716V136.092H129.466V128.501H144.761V120.91H152.409V106.325L145.034 106L144.707 98.7345L129.739 98.4092L129.411 91.1437L122.091 90.8184L121.763 83.5529L106.796 83.2276L106.468 75.9621L99.1478 75.6368L98.82 67.7749H130.012V75.9079H122.364V82.9565H130.012V90.5473H167.704V83.5529L160.33 83.2276L160.002 75.9621L152.682 75.6368L152.354 67.7749H160.057V60.7806L152.682 60.4552L152.354 53.1898L145.034 52.8645L144.707 45.5448H130.012V53.1898L122.091 52.8645L121.763 45.5448H107.069V53.1898L99.1478 52.8645ZM175.352 120.91V98.6803H168.251V106.271H160.603V120.91H175.352ZM167.704 143.683V129.043H145.307V136.634H137.66V151.274H160.057V143.683H167.704ZM183 166.455V129.043H175.898V159.407H168.251V166.997H160.603V174.588H152.955V182.179H145.307V204.409H152.955V212H160.057V197.415L152.682 197.09L152.354 189.228H167.704V174.046H175.352V166.455H183ZM7.10149 182.179V174.588H0V204.409H7.10149V196.818H15.2955V204.409H22.397V189.77H14.7493V182.179H7.10149ZM183 212V182.179H175.898V189.77H168.251V204.409H175.898V212H183Z" fill="white"/>
</svg>
