<svg width="303" height="247" viewBox="0 0 303 247" fill="none" xmlns="http://www.w3.org/2000/svg">
<path d="M303 0.13842C289.811 9.43656 275.208 16.5482 259.754 21.1993C251.459 11.667 240.435 4.91074 228.173 1.8443C215.911 -1.22214 203.003 -0.450795 191.194 4.054C179.385 8.5588 169.245 16.5797 162.146 27.0319C155.047 37.4841 151.331 49.8633 151.5 62.4952V76.2605C127.296 76.8877 103.313 71.5226 81.6862 60.643C60.0593 49.7634 41.4603 33.7069 27.5455 13.9037C27.5455 13.9037 -27.5455 137.791 96.4091 192.852C68.0445 212.096 34.2549 221.745 0 220.383C123.955 289.21 275.455 220.383 275.455 62.0822C275.442 58.248 275.073 54.4231 274.353 50.657C288.409 36.8022 298.329 19.3095 303 0.13842Z" fill="white"/>
</svg>
